<svg version="1.1"
     baseProfile="full"
     width="256" height="256"
     xmlns="http://www.w3.org/2000/svg">
  <line x1="0" y1="0" x2="32" y2="32" stroke="black" stroke-width="3"/>
<line x1="32" y1="32" x2="64" y2="0" stroke="black" stroke-width="3"/>
<line x1="64" y1="0" x2="96" y2="32" stroke="black" stroke-width="3"/>
<line x1="96" y1="32" x2="128" y2="0" stroke="black" stroke-width="3"/>
<line x1="128" y1="0" x2="160" y2="32" stroke="black" stroke-width="3"/>
<line x1="160" y1="32" x2="192" y2="0" stroke="black" stroke-width="3"/>
<line x1="192" y1="0" x2="224" y2="32" stroke="black" stroke-width="3"/>
<line x1="224" y1="32" x2="256" y2="0" stroke="black" stroke-width="3"/>
<line x1="0" y1="256" x2="32" y2="224" stroke="black" stroke-width="3"/>
<line x1="32" y1="224" x2="64" y2="256" stroke="black" stroke-width="3"/>
<line x1="64" y1="256" x2="96" y2="224" stroke="black" stroke-width="3"/>
<line x1="96" y1="224" x2="128" y2="256" stroke="black" stroke-width="3"/>
<line x1="128" y1="256" x2="160" y2="224" stroke="black" stroke-width="3"/>
<line x1="160" y1="224" x2="192" y2="256" stroke="black" stroke-width="3"/>
<line x1="192" y1="256" x2="224" y2="224" stroke="black" stroke-width="3"/>
<line x1="224" y1="224" x2="256" y2="256" stroke="black" stroke-width="3"/>
</svg>
